HIERARCHY
ROOT Hips
{
	OFFSET -0.001795 -0.223333 0.028219
	CHANNELS 6 Xposition Yposition Zposition Zrotation Yrotation Xrotation
	JOINT LeftUpLeg
	{
		OFFSET 0.069520 -0.091406 -0.006815
		CHANNELS 3 Zrotation Yrotation Xrotation
		JOINT LeftLeg
		{
			OFFSET 0.034277 -0.375199 -0.004496
			CHANNELS 3 Zrotation Yrotation Xrotation
			JOINT LeftFoot
			{
				OFFSET -0.013596 -0.397961 -0.043693
				CHANNELS 3 Zrotation Yrotation Xrotation
				JOINT LeftToe
				{
					OFFSET 0.026358 -0.055791 0.119288
					CHANNELS 3 Zrotation Yrotation Xrotation
					End Site
					{
						OFFSET 0.000000 0.000000 0.000000
					}
				}
			}
		}
	}
	JOINT RightUpLeg
	{
		OFFSET -0.067670 -0.090522 -0.004320
		CHANNELS 3 Zrotation Yrotation Xrotation
		JOINT RightLeg
		{
			OFFSET -0.038290 -0.382569 -0.008850
			CHANNELS 3 Zrotation Yrotation Xrotation
			JOINT RightFoot
			{
				OFFSET 0.015774 -0.398415 -0.042312
				CHANNELS 3 Zrotation Yrotation Xrotation
				JOINT RightToe
				{
					OFFSET -0.025372 -0.048144 0.123348
					CHANNELS 3 Zrotation Yrotation Xrotation
					End Site
					{
						OFFSET 0.000000 0.000000 0.000000
					}
				}
			}
		}
	}
	JOINT Spine
	{
		OFFSET -0.002533 0.108963 -0.026696
		CHANNELS 3 Zrotation Yrotation Xrotation
		JOINT Spine1
		{
			OFFSET 0.005487 0.135180 0.001092
			CHANNELS 3 Zrotation Yrotation Xrotation
			JOINT Spine2
			{
				OFFSET 0.001457 0.052922 0.025425
				CHANNELS 3 Zrotation Yrotation Xrotation
				JOINT Neck
				{
					OFFSET -0.002778 0.213870 -0.042857
					CHANNELS 3 Zrotation Yrotation Xrotation
					JOINT Head
					{
						OFFSET 0.005152 0.064970 0.051349
						CHANNELS 3 Zrotation Yrotation Xrotation
						End Site
						{
							OFFSET 0.000000 0.000000 0.000000
						}
					}
				}
				JOINT LeftShoulder
				{
					OFFSET 0.078845 0.121749 -0.034090
					CHANNELS 3 Zrotation Yrotation Xrotation
					JOINT LeftArm
					{
						OFFSET 0.090977 0.030469 -0.008868
						CHANNELS 3 Zrotation Yrotation Xrotation
						JOINT LeftForeArm
						{
							OFFSET 0.259612 -0.012772 -0.027456
							CHANNELS 3 Zrotation Yrotation Xrotation
							JOINT LeftHand
							{
								OFFSET 0.249234 0.008986 -0.001171
								CHANNELS 3 Zrotation Yrotation Xrotation
								End Site
								{
									OFFSET 0.000000 0.000000 0.000000
								}
							}
						}
					}
				}
				JOINT RightShoulder
				{
					OFFSET -0.081759 0.118833 -0.038615
					CHANNELS 3 Zrotation Yrotation Xrotation
					JOINT RightArm
					{
						OFFSET -0.096012 0.032551 -0.009143
						CHANNELS 3 Zrotation Yrotation Xrotation
						JOINT RightForeArm
						{
							OFFSET -0.253742 -0.013329 -0.021401
							CHANNELS 3 Zrotation Yrotation Xrotation
							JOINT RightHand
							{
								OFFSET -0.255298 0.007772 -0.005559
								CHANNELS 3 Zrotation Yrotation Xrotation
								End Site
								{
									OFFSET 0.000000 0.000000 0.000000
								}
							}
						}
					}
				}
			}
		}
	}
}
MOTION
Frames: 13
Frame Time: 0.050000
0.339483 0.071910 1.945928 -0.497657 12.356478 -82.576875 19.493692 2.692213 -9.888908 -2.560868 0.228979 2.206629 -5.893135 8.404886 37.325897 0.000000 0.000000 0.000000 -11.829687 -2.408904 -3.118804 4.912811 -0.771572 -11.000347 -5.180919 -16.194273 49.387938 0.000000 0.000000 0.000000 3.166532 1.645996 -31.027212 -3.903023 1.482627 8.274723 2.443863 12.728616 43.634365 11.722834 -9.766329 -1.640266 0.000000 0.000000 0.000000 -0.910794 -12.589593 3.406576 -55.527287 -18.370401 -6.457480 -17.334765 -33.535228 5.316691 0.000000 0.000000 0.000000 23.850432 -1.892629 5.465345 37.675726 13.008959 -6.106046 22.017740 31.133218 8.085980 0.000000 0.000000 0.000000
0.338956 0.072973 1.947008 0.247828 11.401245 -81.476585 20.519054 2.841864 -9.135356 -1.931244 0.217273 -0.147304 -5.525740 8.810783 38.274216 0.000000 0.000000 0.000000 -11.336509 -2.201774 -4.584734 4.625867 -0.732827 -10.370415 -4.545360 -15.724900 49.192430 0.000000 0.000000 0.000000 3.937228 2.211038 -31.484944 -3.520019 1.261841 9.113407 0.480902 12.106117 42.274739 11.840178 -9.985058 -1.819174 0.000000 0.000000 0.000000 -4.406661 -13.598002 3.477923 -53.358786 -17.774273 -5.667918 -16.023022 -34.927882 5.276339 0.000000 0.000000 0.000000 23.931384 -1.594323 5.164162 37.519266 12.691388 -5.944019 24.296234 30.028114 8.370259 0.000000 0.000000 0.000000
0.338739 0.076427 1.948755 0.592644 10.760816 -80.446489 20.930332 2.886035 -8.626530 -1.133313 0.181341 -2.155725 -4.756330 9.313158 37.863934 0.000000 0.000000 0.000000 -10.921773 -2.042490 -5.344232 4.306916 -0.699841 -10.068687 -4.329648 -15.548209 48.578749 0.000000 0.000000 0.000000 4.832795 2.774273 -31.920466 -3.480050 1.164715 10.848949 -1.014957 10.941543 40.045559 12.044208 -11.371804 0.284935 0.000000 0.000000 0.000000 -8.779104 -15.180204 3.935475 -50.571809 -18.223386 -4.479218 -15.612048 -35.227093 5.448872 0.000000 0.000000 0.000000 24.286307 -1.850085 4.500630 36.329736 12.828000 -5.718734 26.079042 29.248684 8.649139 0.000000 0.000000 0.000000
0.339297 0.077973 1.951528 0.726366 10.209848 -79.813648 21.474690 2.994986 -8.616402 -0.718360 0.155458 -2.697764 -4.476063 9.182427 36.391167 0.000000 0.000000 0.000000 -11.176514 -2.062715 -6.495541 4.201046 -0.674625 -8.709302 -4.630361 -15.732517 46.900776 0.000000 0.000000 0.000000 5.296837 3.129806 -32.638045 -3.553314 1.079060 13.311080 -2.074027 10.219041 38.497321 11.417891 -12.047503 3.080950 0.000000 0.000000 0.000000 -13.120861 -16.566861 4.464547 -47.246897 -19.152153 -3.475291 -15.201716 -35.586341 5.605955 0.000000 0.000000 0.000000 27.001578 -0.419703 5.681806 33.138266 13.339608 -5.547825 26.289993 29.092555 8.421982 0.000000 0.000000 0.000000
0.340299 0.080951 1.954672 0.769663 9.952895 -79.183728 21.775139 3.089358 -9.453668 -0.651478 0.122750 -1.486594 -3.828654 9.679098 36.156944 0.000000 0.000000 0.000000 -10.830335 -1.941658 -7.224907 3.135539 -0.576660 -7.994751 -5.368896 -16.263086 45.531350 0.000000 0.000000 0.000000 5.735251 3.356959 -32.196505 -3.132169 0.783334 14.030660 -3.371128 9.005090 36.850681 11.410688 -12.617979 4.182651 0.000000 0.000000 0.000000 -16.602220 -16.841195 4.753894 -46.400067 -19.607501 -2.835444 -14.216160 -36.707410 5.753960 0.000000 0.000000 0.000000 28.159629 0.763300 6.080374 31.231991 12.542190 -5.341229 27.899633 29.731905 8.916334 0.000000 0.000000 0.000000
0.341413 0.081492 1.957787 0.706989 10.027470 -78.771703 22.393917 3.245677 -10.602215 -1.185598 0.136989 -0.007212 -3.197613 10.193441 35.574784 0.000000 0.000000 0.000000 -11.195844 -2.027644 -8.028319 2.839175 -0.534898 -6.971017 -4.844491 -15.644541 44.484558 0.000000 0.000000 0.000000 6.010661 3.507342 -32.079778 -3.398351 0.774008 16.291229 -3.767359 8.772405 35.181670 11.324990 -13.968508 7.246293 0.000000 0.000000 0.000000 -18.624786 -19.062997 5.914531 -44.155426 -20.642175 -2.097247 -13.958572 -37.955874 5.935724 0.000000 0.000000 0.000000 30.458243 1.585497 6.982147 28.092168 12.035776 -5.122942 29.197884 30.483144 9.316654 0.000000 0.000000 0.000000
0.342390 0.083028 1.960308 0.608114 10.232612 -78.682832 23.150148 3.366215 -11.069189 -2.763098 0.281692 0.977356 -3.028747 10.643323 36.667571 0.000000 0.000000 0.000000 -11.715757 -2.169003 -8.294295 2.864354 -0.527491 -6.451889 -4.211221 -15.022074 44.698225 0.000000 0.000000 0.000000 6.027395 3.460693 -31.310451 -3.274626 0.595840 17.199245 -3.962203 8.032082 34.802307 10.897821 -14.344974 8.978681 0.000000 0.000000 0.000000 -21.135785 -20.891033 7.207951 -41.464346 -21.158469 -1.769111 -13.961430 -39.896223 6.405942 0.000000 0.000000 0.000000 32.061339 2.616456 7.652581 25.723841 11.447219 -4.884091 31.545152 32.281135 10.395145 0.000000 0.000000 0.000000
0.343177 0.085324 1.962431 0.146038 10.391175 -78.521992 23.932893 3.494904 -11.943231 -4.435891 0.444020 1.763407 -2.214020 11.484606 36.694893 0.000000 0.000000 0.000000 -11.762131 -2.187523 -8.572245 2.710614 -0.497288 -5.526649 -4.159317 -14.814539 44.088349 0.000000 0.000000 0.000000 5.580646 3.182447 -30.509271 -2.273598 -0.403970 20.029639 -4.811912 7.494543 32.884915 10.927060 -15.567467 11.429969 0.000000 0.000000 0.000000 -23.688635 -22.926886 8.766916 -38.476078 -21.883763 -1.245784 -13.637382 -41.103125 6.610757 0.000000 0.000000 0.000000 33.195239 3.156064 7.720798 24.469127 11.659442 -4.533016 32.960122 33.929806 11.343853 0.000000 0.000000 0.000000
0.344014 0.088047 1.964668 -0.035211 10.450991 -77.962956 24.867195 3.627097 -12.765652 -5.918356 0.589729 2.421700 -1.496554 12.120993 36.472450 0.000000 0.000000 0.000000 -11.593519 -2.120387 -9.645933 2.212212 -0.409447 -4.002171 -4.205341 -14.683678 43.391180 0.000000 0.000000 0.000000 5.374043 3.044505 -30.088798 -1.731292 -1.239429 23.501582 -6.191408 7.855595 30.550889 10.627832 -17.573722 15.934296 0.000000 0.000000 0.000000 -27.106928 -25.421521 10.588089 -33.292136 -21.578882 -1.042787 -14.166592 -42.117762 7.040733 0.000000 0.000000 0.000000 36.977329 4.563829 9.395487 21.632633 12.029670 -4.166616 31.066399 36.135668 11.187849 0.000000 0.000000 0.000000
0.345065 0.090795 1.967682 -0.684009 10.379418 -77.590465 25.781229 3.763960 -13.517444 -7.569851 0.745543 2.530804 -0.497820 12.712867 34.314465 0.000000 0.000000 0.000000 -11.222511 -2.015157 -10.113106 1.717815 -0.330087 -3.172661 -5.718625 -15.978559 43.036773 0.000000 0.000000 0.000000 4.697271 2.684187 -29.441385 -1.861788 -2.108707 30.218489 -6.278197 7.501023 24.838973 9.358460 -19.301350 23.086650 0.000000 0.000000 0.000000 -30.595545 -27.462587 12.603826 -30.255174 -20.549251 -0.700344 -12.439851 -43.703271 6.770545 0.000000 0.000000 0.000000 38.081434 5.786177 9.840684 21.737338 12.396317 -3.753311 29.032688 37.480018 11.092589 0.000000 0.000000 0.000000
0.346071 0.094109 1.971547 -0.885315 10.341510 -76.700946 27.084769 4.004574 -15.182071 -9.528523 0.961699 4.173900 0.044036 12.969810 33.053505 0.000000 0.000000 0.000000 -11.304721 -1.997599 -11.460993 1.066192 -0.207745 -1.873210 -6.530406 -16.601481 42.072027 0.000000 0.000000 0.000000 3.968610 2.291232 -28.508605 -1.694784 -3.428978 37.296660 -7.880715 8.228544 16.887023 8.024036 -20.065023 28.847858 0.000000 0.000000 0.000000 -33.164545 -29.097525 13.843916 -28.366039 -19.443927 -0.084475 -12.599982 -44.921578 7.129526 0.000000 0.000000 0.000000 40.773855 7.582524 11.397584 20.399889 12.439224 -3.140132 26.179722 38.349830 10.290017 0.000000 0.000000 0.000000
0.346840 0.095559 1.976285 -1.162562 10.102701 -76.147648 28.457898 4.364141 -17.013075 -11.017183 1.164773 6.058118 0.693205 13.529390 32.898040 0.000000 0.000000 0.000000 -10.249217 -1.673024 -12.569417 0.128433 -0.045308 -0.931588 -6.763514 -16.693969 42.285554 0.000000 0.000000 0.000000 3.573877 2.115563 -26.441501 -2.700863 -3.611536 44.089526 -7.868452 8.056007 8.744633 6.975595 -20.456575 33.801208 0.000000 0.000000 0.000000 -34.410487 -30.621419 15.057124 -26.890739 -17.775247 0.317154 -10.799219 -47.137589 6.731548 0.000000 0.000000 0.000000 40.584444 8.489646 11.288853 22.202333 12.798850 -2.604750 24.032416 39.160995 10.035675 0.000000 0.000000 0.000000
0.347155 0.097480 1.981161 -1.302517 9.964987 -75.240991 29.128085 4.564332 -18.762750 -11.079120 1.222592 7.672194 0.316226 13.010779 32.405222 0.000000 0.000000 0.000000 -10.425183 -1.683546 -14.305593 0.743864 -0.106996 -0.073596 -8.463620 -18.247060 42.110434 0.000000 0.000000 0.000000 2.642993 1.662146 -25.935645 -4.269138 -3.173162 53.081962 -7.582424 9.252073 -0.388911 6.735656 -19.850120 34.429676 0.000000 0.000000 0.000000 -35.400334 -31.386285 15.126485 -26.961752 -15.989236 0.820116 -11.586567 -49.036746 7.330724 0.000000 0.000000 0.000000 41.963527 9.500572 12.028588 22.748576 13.585101 -1.999929 21.667992 40.000688 9.471280 0.000000 0.000000 0.000000
